<svg width="2048" height="771" version="1.1" viewBox="0 0 541.87 203.99" xmlns="http://www.w3.org/2000/svg">
 <g transform="translate(123.52 -53.351)">
  <path d="m-123.52 155.35v-102h541.87v203.99h-541.87zm98.17 88.485c6.3841-1.7602 11.566-6.226 14.87-12.814 2.9118-5.8068 4.4391-14.396 3.6462-20.505-0.69776-5.3758-2.3636-9.0378-5.5363-12.171-3.3592-3.3172-6.7288-4.5732-12.196-4.5464-6.307 0.031-11.131 2.1614-15.772 6.9649-4.2662 4.416-6.7453 9.7673-8.0541 17.385-1.2066 7.0229-0.35522 13.79 2.3074 18.34 2.5206 4.3078 6.6396 7.0935 11.664 7.8888 2.2597 0.35765 6.7882 0.0869 9.0703-0.54234zm-6.3904-10.385c-3.168-1.1859-4.4599-3.8804-4.4628-9.3085-0.0027-4.9346 1.0584-10.442 2.6572-13.792 2.6323-5.5155 8.3193-7.5634 11.752-4.2321 2.2747 2.2072 2.9509 6.1854 2.1367 12.57-1.021 8.006-3.0797 12.453-6.5876 14.231-1.625 0.82346-4.0812 1.0609-5.496 0.53131zm92.635 10.522c5.5202-1.3008 10.089-5.298 12.741-11.147 0.67259-1.4833 2.6046-6.9538 2.6046-7.375 0-0.0644-2.7269-0.11712-6.0597-0.11712h-6.0597l-0.65292 1.6895c-2.1066 5.4509-6.122 8.0036-9.7238 6.1819-2.4928-1.2608-3.4339-3.852-3.4315-9.4483 3e-3 -7.0603 1.3756-12.611 4.0399-16.339 1.6486-2.3065 4.2944-3.3367 7.0093-2.7291 2.4916 0.5576 3.9385 2.5555 4.4124 6.0928l0.1595 1.1906 12.188-0.1514-0.13765-1.1149c-0.0757-0.6132-0.21326-1.8293-0.30566-2.7024-0.52721-4.9817-3.3186-9.7069-7.0815-11.987-4.1962-2.5432-10.586-3.0231-16.053-1.2055-8.3289 2.7694-14.515 11.136-16.404 22.187-0.63893 3.7373-0.69491 8.6409-0.13528 11.85 1.4438 8.2791 6.5115 14.104 13.417 15.421 2.3225 0.44305 6.9506 0.29859 9.4724-0.29566zm80.154-0.12927c3.985-0.95466 7.2387-2.6768 9.9022-5.241 3.2993-3.1763 4.6059-6.1487 4.8442-11.02 0.23567-4.818-0.78576-7.8728-3.4864-10.427-2.3487-2.2213-4.3835-2.9987-11.51-4.3972-5.6302-1.1049-6.7469-1.798-6.7469-4.1874 0-1.668 0.73803-2.8293 2.3374-3.6778 0.93301-0.49498 1.5286-0.58545 3.8803-0.58932 2.3312-4e-3 2.927 0.0829 3.7033 0.53889 1.2125 0.71226 2.0127 1.9362 2.235 3.4183l0.17957 1.1976h11.609l-3e-3 -1.3891c-0.01-4.2449-2.642-8.8044-6.6039-11.438-2.8259-1.8786-5.0462-2.5459-9.0228-2.7114-5.2539-0.21874-9.5756 0.90834-13.509 3.523-4.967 3.3021-7.6432 8.4325-7.6355 14.638 5e-3 4.1444 0.98139 6.7995 3.31 9.0018 2.2951 2.1706 3.5184 2.6446 10.312 3.996 7.394 1.4708 8.8644 2.1746 8.8644 4.2428 0 2.8263-2.0313 4.3823-6.3809 4.8877-3.8533 0.44776-7.0703-1.4373-7.5477-4.4226l-0.16197-1.0131h-12.103v1.6642c0 8.64 7.7916 14.559 18.521 14.069 1.528-0.0698 3.7836-0.36773 5.0125-0.66214zm-227.36-10.441c0.75322-5.6753 1.6352-12.313 1.96-14.751l0.59051-4.4318 6.2501-2.2e-4c10.348-2.6e-4 14.592-0.6729 19.701-3.1221 8.4503-4.0508 13.848-11.371 16.098-21.831 0.84458-3.927 0.84342-11.529-0.0021-14.602-2.6245-9.5357-9.8534-15.536-20.55-17.056-1.0632-0.15116-8.7527-0.26556-18.053-0.26856l-16.201-5e-3 -0.13103 0.59532c-0.07207 0.32742-2.6327 19.467-5.6904 42.532-3.0576 23.065-5.6176 42.265-5.6888 42.667l-0.12952 0.7307 10.239-0.0693 10.239-0.0692zm4.7143-37.637c0.20195-1.244 2.7928-20.5 2.7946-20.77 7.94e-4 -0.10914 3.0076-0.19732 6.682-0.19595l6.6807 2e-3 1.3562 0.77785c2.592 1.4867 4.0903 4.135 4.2769 7.5598 0.20289 3.7245-1.0695 7.2175-3.6437 10.003-3.0084 3.255-4.2426 3.6152-12.387 3.6152h-5.9208zm95.315 47.807c7.7366-1.0521 14.066-5.85 17.564-13.315 3.2894-7.0194 4.2908-17.237 2.3206-23.678-1.3198-4.3145-3.8533-7.3652-7.673-9.2392-4.216-2.0684-7.9859-2.659-18.394-2.8814l-7.7237-0.16504-0.13358 0.63642c-0.0735 0.35003-0.32017 2.1842-0.54821 4.076-0.22804 1.8918-1.3091 10.464-2.4024 19.05-1.0933 8.5857-2.2206 17.456-2.5051 19.711-0.2845 2.2556-0.58037 4.5475-0.65748 5.0932l-0.14021 0.99219h9.1121c5.0117 0 10.043-0.12666 11.182-0.28146zm-7.0585-10.687c0-0.39801 0.90123-7.4177 2.787-21.708 0.36486-2.7649 0.7258-5.3071 0.80209-5.6493 0.13779-0.61809 0.16005-0.62158 3.3681-0.52917 2.8889 0.0832 3.387 0.17043 4.7243 0.82717 1.605 0.78818 2.5629 1.8428 3.4828 3.8343 0.52151 1.129 0.57681 1.6693 0.56154 5.4857-0.0153 3.8339-0.0853 4.4568-0.74183 6.6015-1.0952 3.5779-2.63 6.3359-4.6532 8.3615-2.4651 2.468-3.6575 2.972-7.3542 3.1083-2.6485 0.0977-2.9766 0.061-2.9766-0.3323zm81.109 6.2058 2.0671-4.7625h13.354l0.15081 0.7276c0.0829 0.40018 0.38998 2.2754 0.6823 4.1672 0.29233 1.8918 0.59338 3.7075 0.66901 4.0349 0.13735 0.59461 0.14414 0.59531 5.821 0.59531 3.9053 0 5.6835-0.0897 5.6835-0.28674 0-0.1577-0.47147-2.9854-1.0477-6.2838-1.8323-10.488-4.7612-27.221-5.8663-33.514-0.58774-3.347-1.1955-6.8317-1.3506-7.7439l-0.28196-1.6585-11.902 0.142-4.4207 10.054c-2.4314 5.5298-7.2515 16.484-10.711 24.342-3.4599 7.8581-6.3478 14.436-6.4177 14.618-0.0993 0.2584 1.1446 0.33073 5.688 0.33073h5.8151zm6.2031-16.384c0-0.13438 1.0507-2.843 2.3349-6.0193 1.2842-3.1762 2.6094-6.4638 2.945-7.3058 0.33556-0.84197 0.66751-1.4734 0.73768-1.4033 0.1655 0.16549 1.9027 12.985 1.9125 14.113l7e-3 0.85989h-3.9687c-2.2501 0-3.9688-0.1058-3.9688-0.24433zm84.604 16.516c0.64981-4.8627 3.6117-27.192 4.0798-30.758l0.2866-2.1828h12.268l0.59825-4.5641c0.32904-2.5102 0.69003-5.1891 0.80222-5.9531l0.20396-1.3891h-36.073l-0.7129 5.4901c-0.39208 3.0196-0.71114 5.6985-0.70903 5.9531 4e-3 0.42714 0.46519 0.46302 5.957 0.46302 3.2742 0 5.9531 0.0689 5.9531 0.15302 0 0.16749-2.3963 18.423-3.8491 29.322-0.50239 3.7694-0.91344 7.1352-0.91344 7.4796v0.62623l11.507-0.1426zm53.105 4.0349c0.075-0.32743 0.48866-3.3338 0.9193-6.6807 0.43066-3.347 1.7463-13.408 2.9237-22.357 1.1774-8.9495 2.5457-19.368 3.0406-23.151 1.8062-13.807 4.0979-31.252 4.2664-32.478l0.17278-1.2568h-20.37l-0.56836 4.2995c-0.3126 2.3647-1.2769 9.6573-2.143 16.206-4.6965 35.512-7.7749 58.885-8.2239 62.442-0.14698 1.1642-0.33274 2.4441-0.41278 2.8443l-0.14552 0.72761h20.405zm18.787-0.26459c0.0833-0.47294 0.43574-3.0626 0.78322-5.7547 2.8621-22.176 2.9092-22.509 3.142-22.203 0.0462 0.0606 3.1326 6.5396 6.8588 14.398l6.7749 14.288 10.562 0.143 0.28726-2.0559c0.47366-3.3899 2.2963-17.053 4.2627-31.954 1.0178-7.7126 1.9097-14.35 1.9822-14.751l0.13166-0.72761h-11.793l-0.5982 4.6964c-1.3587 10.667-2.9088 22.082-3.0127 22.186-0.0611 0.0611-0.6581-1.051-1.3266-2.4714-0.66853-1.4204-1.8966-4.0113-2.7292-5.7575-0.83254-1.7462-3.1483-6.6278-5.1462-10.848l-3.6325-7.6729h-11.795l-1.1113 8.3344c-3.7469 28.1-5.3992 40.577-5.4045 40.812-3e-3 0.10914 2.6094 0.19844 5.8043 0.19844h5.8088zm55.832 0.11605c9.5759-2.596 15.579-10.068 17.788-22.143 0.67286-3.6774 0.60095-10.184-0.14578-13.196-1.9062-7.6872-6.9628-11.547-16.848-12.861-1.1642-0.1547-5.531-0.3559-9.704-0.44711l-7.5874-0.16583-0.1506 0.89932c-0.13777 0.82273-0.89223 6.7431-4.6663 36.618-0.71697 5.6753-1.3711 10.715-1.4537 11.2l-0.15015 0.88134 10.401-0.10645c9.6518-0.0988 10.553-0.14778 12.518-0.68028zm-9.6573-10.177c0-0.21717 0.29205-2.5815 0.64903-5.2541 0.35695-2.6726 1.1343-8.6097 1.7274-13.194 0.59312-4.5839 1.1368-8.6023 1.2081-8.9297 0.1243-0.57043 0.24362-0.59531 2.8548-0.59531 4.7373 0 6.8998 1.0595 8.4058 4.1186 0.80338 1.632 0.87976 2.0118 0.98221 4.8849 0.23434 6.5724-1.7467 12.392-5.4965 16.146-2.4651 2.468-3.6575 2.972-7.3542 3.1083-2.5117 0.0926-2.9766 0.0481-2.9766-0.28508zm60.475 6.6877c0.30713-2.2556 0.64114-4.7261 0.74226-5.4901l0.18386-1.3891h-10.063c-5.5348 0-10.063-0.0332-10.063-0.0738s0.23627-1.7372 0.52503-3.7703c0.28877-2.0331 0.5269-3.8437 0.52917-4.0236 3e-3 -0.25119 1.9518-0.34321 8.404-0.39687l8.3998-0.0699 0.57401-4.3656c0.3157-2.4011 0.63209-4.8121 0.70313-5.3578l0.12912-0.99218h-8.3092c-4.57 0-8.3092-0.0941-8.3092-0.20907 0-0.26679 0.75636-5.9952 0.94141-7.13l0.1397-0.85672 19.93-0.1386 0.72816-5.2917c0.40047-2.9104 0.73305-5.381 0.73903-5.4901 6e-3 -0.10914-7.1328-0.19844-15.864-0.19844s-15.875 0.0838-15.875 0.18618c0 0.1024-0.77962 6.0258-1.7325 13.163-1.8234 13.658-2.83 21.252-3.9469 29.778-0.37174 2.8376-0.73673 5.4282-0.81111 5.7568l-0.13522 0.59738 31.882-0.1364zm18.677-3.4025c2.5799-4.1269 4.7309-7.5438 4.7802-7.593 0.0492-0.0492 1.3818 3.3571 2.9612 7.5697l2.8717 7.6592h14.488l-0.35933-0.8599c-0.19764-0.47294-2.7591-6.4722-5.6921-13.332-2.933-6.8595-5.3327-12.545-5.3327-12.635 0-0.0898 3.4323-5.0821 7.6274-11.094 4.1951-6.0118 7.7144-11.071 7.8208-11.244 0.14676-0.2375-1.2749-0.31302-5.8929-0.31302h-6.0863l-4.025 6.4823c-2.2137 3.5653-4.1087 6.4823-4.211 6.4823-0.10231 0-1.235-2.917-2.5171-6.4823l-2.3311-6.4823h-14.442l0.93906 2.1828c0.51646 1.2005 2.525 5.9333 4.4634 10.517 1.9384 4.5839 3.8471 9.0751 4.2415 9.9804 0.39447 0.90528 0.65548 1.7982 0.58007 1.9844-0.0754 0.18613-3.853 5.6962-8.3946 12.245s-8.3176 12.057-8.391 12.242c-0.10602 0.26661 1.1366 0.32105 6.0389 0.26458l6.1724-0.0711zm-68.098-49.646c11.506-13.298 18.078-27.943 20.336-45.319 0.55174-4.244 0.62926-14.351 0.14153-18.446-2.2011-18.477-9.8242-35.197-21.873-47.975l-2.076-2.2016-11.773 11.764 2.0538 2.2906c8.7014 9.7048 14.137 20.941 16.45 34.005 0.80102 4.5242 0.99491 13.723 0.39314 18.653-1.722 14.107-8.2172 28.016-17.576 37.637l-1.4797 1.5212 5.9364 5.942c5.7177 5.7231 5.955 5.9253 6.442 5.4903 0.27813-0.24841 1.6389-1.7614 3.0239-3.3621zm-140.59-2.2272 5.7946-5.7991-1.9137-2.0723c-8.8167-9.5475-14.619-21.723-16.873-35.41-0.67053-4.071-0.67873-14.865-0.0146-19.061 0.95279-6.018 2.8749-12.628 5.148-17.703 2.585-5.7713 7.1341-12.773 11.162-17.179 0.81446-0.89102 1.6981-1.8774 1.9637-2.1919 0.48111-0.56984 0.46188-0.5926-5.424-6.42l-5.9067-5.8482-1.9196 2.0097c-4.2837 4.4849-8.8438 10.773-12.079 16.657-5.3861 9.7953-8.6303 20.177-9.9611 31.876-0.46853 4.1189-0.40067 13.187 0.13166 17.595 0.84723 7.0156 2.8886 15.18 5.3585 21.431 2.6773 6.7762 8.2693 16.27 12.809 21.747 2.0374 2.458 5.5099 6.1667 5.7738 6.1667 0.0858 0 2.7635-2.6096 5.9506-5.7991zm19.448-19.718 5.6523-5.6738-1.992-2.4622c-4.5375-5.6085-6.934-10.579-8.4297-17.484-0.78028-3.6022-0.85846-10.78-0.15557-14.281 1.5152-7.547 5.16-14.932 9.6656-19.583l1.221-1.2606-5.6801-5.6847c-3.124-3.1266-5.7646-5.6847-5.8678-5.6847-0.10321 0-1.2156 1.1609-2.472 2.5797-7.305 8.2498-12.042 18.986-13.374 30.309-0.40217 3.4201-0.17957 12.008 0.39224 15.133 1.9984 10.92 6.3236 19.789 13.772 28.238 0.73464 0.83336 1.3987 1.518 1.4757 1.5214 0.077 3e-3 2.6835-2.547 5.7923-5.6676zm99.528 4.0201c5.6465-6.4795 9.0789-12.322 11.464-19.513 3.9418-11.883 3.9348-23.7-0.0212-35.437-2.4808-7.3607-7.473-15.628-12.202-20.209l-1.0421-1.0092-5.7669 5.6866-5.7669 5.6866 1.6562 1.8049c2.0959 2.2841 4.7329 6.2296 5.9862 8.9565 2.3505 5.1144 3.4822 9.6533 3.7255 14.941 0.45559 9.9037-2.4152 18.654-8.6907 26.491l-2.2993 2.8712 5.57 5.6919c3.0636 3.1306 5.6547 5.6919 5.7582 5.6919 0.1034 0 0.83651-0.74414 1.6291-1.6536zm-83.163-20.644 3.2399-3.2477-1.4548-2.9039c-1.856-3.7049-2.2717-5.3038-2.4454-9.4056-0.21518-5.0817 0.64265-8.5734 3.1382-12.774l1.0823-1.8218-3.2688-3.2766c-1.7978-1.8022-3.3892-3.2385-3.5363-3.1919-0.14717 0.0466-0.84739 0.91027-1.556 1.9192-5.8536 8.3341-7.1587 20.084-3.3214 29.9 1.2639 3.2334 4.0828 8.0496 4.7114 8.0496 0.0941 0 1.6289-1.4614 3.4109-3.2477zm63.846 2.1232c2.9908-4.1078 4.8523-8.8673 5.6903-14.549 0.93495-6.3394-0.49366-13.985-3.6821-19.705-1.1479-2.0594-2.7914-4.348-3.2235-4.4886-0.14716-0.0479-1.7365 1.3854-3.5318 3.1851l-3.2643 3.2722 0.65532 1.0381c5.0271 7.9635 5.0195 17.347-0.0204 25.169-0.37463 0.58138-0.27435 0.71753 2.8745 3.9026 1.7945 1.8151 3.3573 3.3002 3.473 3.3002 0.11568 0 0.57875-0.50602 1.029-1.1245zm-28.758-0.7202c4.7226-1.2078 8.5381-4.146 11.285-8.6902 1.7208-2.8466 2.1595-4.4712 2.2992-8.5152 0.0971-2.8087 0.0278-3.9393-0.32417-5.2917-1.6883-6.4873-6.8381-11.655-13.363-13.409-2.715-0.72999-7.4857-0.61203-10.128 0.25043-9.3821 3.0627-14.862 12.674-12.595 22.091 0.48252 2.0043 2.1584 5.355 3.5386 7.075 2.5114 3.1296 6.1089 5.5329 9.6831 6.4689 2.705 0.70834 6.8812 0.7174 9.6047 0.0208z" style="fill:#aa0000;stroke-width:.26458"/>
 </g>
</svg>
